<svg width="301" height="432" viewBox="0 0 301 432" fill="none" xmlns="http://www.w3.org/2000/svg">
<rect x="2.5" y="133.04" width="296" height="296" rx="22.5" fill="#4F8149"/>
<rect x="2.5" y="133.04" width="296" height="296" rx="22.5" stroke="#3F3D56" stroke-width="5"/>
<path d="M277.78 154.19C277.78 154.19 225.643 13.7712 151.79 13.1498C77.3753 12.5236 23.65 154.19 23.65 154.19" stroke="#BC6C25" stroke-width="5"/>
<circle cx="276.49" cy="153.33" r="10.75" fill="#FEFAE0"/>
<circle cx="276.92" cy="153.76" r="4.3" fill="#3F3D56"/>
<ellipse cx="26.66" cy="153.33" rx="10.32" ry="10.75" fill="#FEFAE0"/>
<ellipse cx="27.0728" cy="153.76" rx="4.128" ry="4.3" fill="#3F3D56"/>
<g filter="url(#filter0_d_57_103)">
<circle cx="150.5" cy="13.5798" r="12.9" fill="#3F3D56"/>
</g>
<path d="M156.52 13.1498C156.52 16.7121 153.632 19.5998 150.07 19.5998C146.508 19.5998 143.62 16.7121 143.62 13.1498C143.62 9.58759 146.508 6.69983 150.07 6.69983C153.632 6.69983 156.52 9.58759 156.52 13.1498Z" fill="#D9D9D9"/>
<defs>
<filter id="filter0_d_57_103" x="133.6" y="0.67981" width="33.8" height="33.8" filterUnits="userSpaceOnUse" color-interpolation-filters="sRGB">
<feFlood flood-opacity="0" result="BackgroundImageFix"/>
<feColorMatrix in="SourceAlpha" type="matrix" values="0 0 0 0 0 0 0 0 0 0 0 0 0 0 0 0 0 0 127 0" result="hardAlpha"/>
<feOffset dy="4"/>
<feGaussianBlur stdDeviation="2"/>
<feComposite in2="hardAlpha" operator="out"/>
<feColorMatrix type="matrix" values="0 0 0 0 0 0 0 0 0 0 0 0 0 0 0 0 0 0 0.25 0"/>
<feBlend mode="normal" in2="BackgroundImageFix" result="effect1_dropShadow_57_103"/>
<feBlend mode="normal" in="SourceGraphic" in2="effect1_dropShadow_57_103" result="shape"/>
</filter>
</defs>
</svg>
